<svg xmlns="http://www.w3.org/2000/svg" xlink="http://www.w3.org/1999/xlink" width="0" height="0" style="display:none;"><symbol id="iconfont-checked">
    <!-- Generator: Sketch 47.1 (45422) - http://www.bohemiancoding.com/sketch -->
    <title>Combined Shape</title>
    <desc>Created with Sketch.</desc>
    <defs/>
    <g id="Page-2" stroke="none" stroke-width="1" fill="none" fill-rule="evenodd">
        <g id="&#x52FE;&#x9009;" fill="#3DA5FE">
            <path d="M11.2905804,15.3291045 L7.46041868,11.4989428 C7.0373507,11.0758748 6.35142197,11.0758748 5.92835399,11.4989428 C5.505286,11.9220108 5.505286,12.6079395 5.92835399,13.0310075 L10.5245481,17.6272016 C10.7360821,17.8387356 11.0133312,17.9445026 11.2905804,17.9445026 C11.5678296,17.9445026 11.8450788,17.8387356 12.0566128,17.6272016 L20.7383127,8.94550165 C21.1613807,8.52243366 21.1613807,7.83650494 20.7383127,7.41343695 C20.3152447,6.99036897 19.629316,6.99036897 19.206248,7.41343695 L11.2905804,15.3291045 Z M13,26 C5.82029825,26 0,20.1797017 0,13 C0,5.82029825 5.82029825,0 13,0 C20.1797017,0 26,5.82029825 26,13 C26,20.1797017 20.1797017,26 13,26 Z" id="Combined-Shape"/>
        </g>
    </g>
</symbol><symbol id="iconfont-close">
    <!-- Generator: Sketch 47.1 (45422) - http://www.bohemiancoding.com/sketch -->
    <title>&#x5C0F;&#x5173;&#x95ED;</title>
    <desc>Created with Sketch.</desc>
    <defs/>
    <g id="&#x6B63;&#x7A3F;" stroke="none" stroke-width="1" fill="none" fill-rule="evenodd">
        <g id="&#x5C0F;&#x5173;&#x95ED;" fill="#D4D5D9">
            <path d="M14,12.5523785 L1.7474337,0.299812225 C1.34768407,-0.0999374083 0.699561858,-0.0999374083 0.299812225,0.299812225 L0.299812225,0.299812225 L0.299812225,0.299812225 C-0.0999374083,0.699561858 -0.0999374083,1.34768407 0.299812225,1.7474337 L0.299812225,1.7474337 L12.5523785,14 L0.299812225,26.2525663 L0.299812225,26.2525663 C-0.0999374083,26.6523159 -0.0999374083,27.3004381 0.299812225,27.7001878 C0.699561858,28.0999374 1.34768407,28.0999374 1.7474337,27.7001878 L14,15.4476215 L26.2525663,27.7001878 C26.6523159,28.0999374 27.3004381,28.0999374 27.7001878,27.7001878 C28.0999374,27.3004381 28.0999374,26.6523159 27.7001878,26.2525663 L27.7001878,26.2525663 L15.4476215,14 L27.7001878,1.7474337 C28.0999374,1.34768407 28.0999374,0.699561858 27.7001878,0.299812225 L27.7001878,0.299812225 L27.7001878,0.299812225 C27.3004381,-0.0999374083 26.6523159,-0.0999374083 26.2525663,0.299812225 L14,12.5523785 Z" id="Combined-Shape"/>
        </g>
    </g>
</symbol><symbol id="iconfont-return">
    <!-- Generator: Sketch 47.1 (45422) - http://www.bohemiancoding.com/sketch -->
    <title>&#x8FD4;&#x56DE;</title>
    <desc>Created with Sketch.</desc>
    <defs/>
    <g id="Page-2" stroke="none" stroke-width="1" fill="none" fill-rule="evenodd">
        <g id="&#x8FD4;&#x56DE;" fill="#7F8389">
            <path d="M6.03093588,20.3564582 L36.5,20.3564582 C37.3284271,20.3564582 38,19.6848853 38,18.8564582 C38,18.0280311 37.3284271,17.3564582 36.5,17.3564582 L5.96726113,17.3564582 L18.7630592,4.56066017 C19.3488456,3.97487373 19.3488456,3.02512627 18.7630592,2.43933983 C18.1772727,1.85355339 17.2275252,1.85355339 16.6417388,2.43933983 L16.6417388,2.43933983 L1.7924964,17.2885822 C1.65146795,17.4296107 1.54439218,17.5917346 1.4712691,17.7647966 C1.18111996,18.0383204 1,18.4262379 1,18.8564582 C1,19.3119312 1.20300647,19.7199896 1.52347434,19.9950881 C1.59229312,20.1266431 1.68196714,20.2501301 1.7924964,20.3606594 L16.6417388,35.2099018 C17.2275252,35.7956883 18.1772727,35.7956883 18.7630592,35.2099018 C19.3488456,34.6241154 19.3488456,33.6743679 18.7630592,33.0885815 L6.03093588,20.3564582 Z" id="Rectangle-69"/>
        </g>
    </g>
</symbol><symbol id="iconfont-selected">
    <!-- Generator: Sketch 47.1 (45422) - http://www.bohemiancoding.com/sketch -->
    <title>&#x591A;&#x9009;</title>
    <desc>Created with Sketch.</desc>
    <defs/>
    <g id="&#x6B63;&#x7A3F;" stroke="none" stroke-width="1" fill="none" fill-rule="evenodd">
        <g id="&#x591A;&#x9009;" fill="#3DA5FE">
            <path d="M14,27 C6.82029825,27 1,21.1797017 1,14 C1,6.82029825 6.82029825,1 14,1 C21.1797017,1 27,6.82029825 27,14 C27,21.1797017 21.1797017,27 14,27 Z M14,17 C15.6568542,17 17,15.6568542 17,14 C17,12.3431458 15.6568542,11 14,11 C12.3431458,11 11,12.3431458 11,14 C11,15.6568542 12.3431458,17 14,17 Z" id="Combined-Shape"/>
        </g>
    </g>
</symbol><symbol id="iconfont-unselected">
    <!-- Generator: Sketch 47.1 (45422) - http://www.bohemiancoding.com/sketch -->
    <title>&#x672A;&#x9009;&#xFF08;&#x591A;&#x9009;&#xFF09;</title>
    <desc>Created with Sketch.</desc>
    <defs>
        <linearGradient x1="100%" y1="22.5142047%" x2="1.3930963%" y2="22.5142045%" id="linearGradient-1">
            <stop stop-color="#3DA5FE" offset="0%"/>
            <stop stop-color="#0BC2E6" offset="100%"/>
        </linearGradient>
    </defs>
    <g id="&#x6B63;&#x7A3F;" stroke="none" stroke-width="1" fill="none" fill-rule="evenodd">
        <g id="&#x672A;&#x9009;&#xFF08;&#x591A;&#x9009;&#xFF09;" fill="#E5E7EA">
            <g id="&#x52FE;&#x9009;" transform="translate(1.000000, 1.000000)">
                <circle id="Oval-234" cx="13" cy="13" r="13"/>
            </g>
        </g>
    </g>
</symbol></svg>